<svg width="1920" height="891" viewBox="0 0 1920 891" fill="none" xmlns="http://www.w3.org/2000/svg">
<path d="M173 147.5C75 127.1 16.8333 156 0 173V890.5C13 829 65.8 710.5 173 728.5C307 751 332 865 502.5 845.5C673 826 686.5 670 829 661.5C971.5 653 979.5 798 1228 804C1476.5 810 1524 600 1669.5 603C1785.9 605.4 1886.67 700.833 1920 749V119.5C1861 7.5 1496 -61.4997 1395.5 80.5003C1295 222.5 1317.5 217.5 1116.5 195C915.5 172.5 887.5 100.5 829 58.5003C770.5 16.5002 661.5 72.5003 605.5 100.5C549.5 128.5 455 83.5003 382.5 100.5C310 117.5 295.5 173 173 147.5Z" fill="url(#paint0_linear)"/>
<defs>
<linearGradient id="paint0_linear" x1="586" y1="61.0001" x2="1460" y2="530" gradientUnits="userSpaceOnUse">
<stop stop-color="#27A0DF"/>
<stop offset="1" stop-color="#00E1FF"/>
</linearGradient>
</defs>
</svg>
