<svg width="1920" height="1462" viewBox="0 0 1920 1462" fill="none" xmlns="http://www.w3.org/2000/svg">
<path d="M789 43.0298C422.479 -27.3045 357 -2.17855 1 52.3988V256.781H1920.5V145.859C1920.5 145.859 1734 60.0226 1506 43.0298C1278 26.037 1173.5 116.814 789 43.0298Z" fill="white" fill-opacity="0.5"/>
<path d="M996 98.5812C589.225 144.919 423.5 41.5424 1 52.3988V556.939H1914L1920 146.306C1780.5 196.241 1414 50.9642 996 98.5812Z" fill="white" fill-opacity="0.5"/>
<path d="M611.659 139.504C363.195 180.076 129.7 119.608 0 53.2882V1462H1921V135.603C1606 201.15 1572.41 173.054 1266.83 156.279C1064.28 145.16 922.24 88.7888 611.659 139.504Z" fill="#FFFDFD"/>
</svg>
